<svg width="49" height="39" fill="none" xmlns="http://www.w3.org/2000/svg"><path d="M3.562 30.758c.58 0 1.083.114 1.513.34.43.227.764.561 1.003 1.003.238.441.358.975.358 1.602v3.428h-1.45v-1.504H2.12v1.504H.69v-3.428c0-.627.12-1.16.358-1.602a2.389 2.389 0 011.003-1.003c.43-.226.934-.34 1.512-.34zm1.424 3.706v-.895c0-.52-.129-.91-.385-1.173-.257-.268-.606-.403-1.048-.403-.447 0-.8.135-1.056.403-.25.263-.376.654-.376 1.173v.895h2.865zm3.31 2.739a.84.84 0 01-.617-.25.85.85 0 01-.25-.628c0-.256.083-.462.25-.617a.856.856 0 01.617-.242c.245 0 .451.08.618.242.167.155.25.36.25.617a.85.85 0 01-.25.627.84.84 0 01-.617.25z" fill="#C4C4C4"/><path d="M13.208 37.239a3.657 3.657 0 01-1.736-.412 3.191 3.191 0 01-1.218-1.155 3.23 3.23 0 01-.438-1.674c0-.62.146-1.175.438-1.664.299-.496.704-.88 1.218-1.155.519-.28 1.1-.42 1.745-.42a3.62 3.62 0 011.468.285c.441.191.811.466 1.11.824l-.931.86c-.424-.49-.949-.735-1.575-.735-.388 0-.734.087-1.039.26a1.813 1.813 0 00-.716.707c-.167.304-.25.65-.25 1.038s.083.734.25 1.039c.173.304.412.543.716.716.305.167.65.25 1.039.25.626 0 1.151-.247 1.575-.743l.93.86a2.903 2.903 0 01-1.11.832c-.44.191-.933.287-1.476.287zm8.24-4.62a4.807 4.807 0 00-1.727-.599v5.111h-1.45v-5.11a4.89 4.89 0 00-1.737.599l-.492-1.083a5.37 5.37 0 011.396-.582 6.09 6.09 0 011.549-.197 6.13 6.13 0 011.557.197c.507.131.973.325 1.396.582l-.492 1.083zm3.875-1.816c.878 0 1.56.215 2.05.644.495.43.743 1.033.743 1.808 0 .734-.224 1.31-.671 1.728-.442.418-1.062.627-1.862.627-.263 0-.52-.027-.77-.081a4.32 4.32 0 01-.796-.269v1.871h-1.433v-3.706c0-.84.233-1.488.699-1.942.471-.453 1.151-.68 2.04-.68zm.01 3.714c.423 0 .748-.107.975-.322.233-.215.35-.519.35-.913 0-.4-.117-.71-.35-.93-.227-.221-.543-.332-.949-.332-.424 0-.755.122-.993.367-.233.245-.35.588-.35 1.03v.698c.18.125.383.223.61.295.232.072.468.108.706.108zm6.852 2.721c-.65 0-1.238-.14-1.763-.42a3.173 3.173 0 01-1.226-1.155 3.213 3.213 0 01-.439-1.665c0-.614.146-1.166.439-1.656a3.152 3.152 0 011.226-1.163 3.683 3.683 0 011.763-.42c.65 0 1.236.14 1.755.42a3.152 3.152 0 011.674 2.82c0 .614-.15 1.169-.448 1.664-.298.49-.707.874-1.226 1.155-.52.28-1.104.42-1.755.42zm0-1.235c.37 0 .704-.083 1.003-.25.298-.173.531-.412.698-.716.173-.305.26-.65.26-1.039 0-.388-.087-.734-.26-1.038a1.77 1.77 0 00-.698-.707 1.962 1.962 0 00-1.003-.26c-.37 0-.704.087-1.002.26a1.83 1.83 0 00-.707.707c-.167.304-.25.65-.25 1.038s.083.734.25 1.039c.173.304.409.543.707.716.298.167.632.25 1.002.25zm10.113-5.137v6.265h-1.405v-.76c-.43.578-1.062.867-1.898.867-.74 0-1.319-.232-1.736-.698-.412-.471-.618-1.14-.618-2.005v-3.67h1.45v3.626c0 .5.117.88.35 1.136.238.251.56.376.966.376.436 0 .785-.134 1.047-.403.263-.274.394-.677.394-1.208v-3.527h1.45zm-2.784-.403c-1.145 0-1.724-.457-1.736-1.37h.993c.012.436.26.654.743.654.239 0 .421-.054.546-.161.126-.114.191-.278.197-.493h.994c-.006.448-.152.788-.439 1.02-.286.233-.719.35-1.298.35z" fill="#365EC2"/><rect x="21.554" y="15.344" width="9.59" height="9.59" rx="1.279" transform="rotate(45 21.554 15.344)" fill="#C4C4C4"/><rect x="35.756" y="15.344" width="9.59" height="9.59" rx="1.279" transform="rotate(45 35.756 15.344)" fill="#365EC2"/><rect x="7.421" y="15.344" width="9.59" height="9.59" rx="1.279" transform="rotate(45 7.42 15.344)" fill="#365EC2"/><rect x="28.587" y="7.672" width="9.59" height="9.59" rx="1.279" transform="rotate(45 28.587 7.672)" fill="#C4C4C4"/><rect x="21.554" width="9.59" height="9.59" rx="1.279" transform="rotate(45 21.554 0)" fill="#365EC2"/><rect x="14.453" y="7.672" width="9.59" height="9.59" rx="1.279" transform="rotate(45 14.453 7.672)" fill="#C4C4C4"/></svg>